# xmcd CD database file
#
# Track frame offsets:
#	150
#	9176
#	27399
#
# Disc length: 923 seconds
#
# Revision: 0
# Processed by: cddbd v1.5.1PL2 Copyright (c) Steve Scherf et al.
# Submitted via: CDex 1.60beta1
#
DISCID=15039903
DTITLE=未完地図 - 未完地図2005
DYEAR=1900
DGENRE=未分類 (日本)
TTITLE0=Unknown
TTITLE1=Unknown
TTITLE2=データトラック
EXTD=
EXTT0=
EXTT1=
EXTT2=
PLAYORDER=
